<?xml version="1.0" encoding="UTF-8"?><svg id="a" xmlns="http://www.w3.org/2000/svg" viewBox="0 0 473.56 78.27"><defs><style>.b{fill:#f6f0f5;}.c{fill:#dbccb9;}</style></defs><path class="c" d="M355.66,21.71c2.65-2.74,5.51-4.66,8.79-5.91,6.13-2.33,12.35-2.43,18.61-.6,7.34,2.14,12.86,6.67,16.63,13.25,4.04,7.06,5.19,14.7,4.07,22.72-.89,6.36-3.12,12.17-7.36,17.05-6.96,8.01-15.87,10.95-26.26,9.63-4.96-.63-9.63-2.65-14.47-7.48,0,1.64,0,3.09,0,4.54q0,2.56-2.52,2.56c-4.04,0-8.08-.02-12.12,.02-.84,0-1.17-.13-1.17-1.1,.03-25.1,.03-50.21,0-75.31,0-.82,.14-1.1,1.04-1.09,4.57,.05,9.15,.05,13.72,0,.87,0,1.06,.23,1.06,1.07-.04,6.59-.02,13.18-.02,19.77v.86Zm16.19,7.31c-1.64,0-3.28-.08-4.91,.01-6.11,.37-10.45,4.37-11.08,10.45-.44,4.24-.44,8.53,.02,12.77,.58,5.39,4.33,9.31,9.68,10.08,3.96,.57,8,.51,11.97,.1,5.06-.52,8.56-3.37,10.5-8.04,2.12-5.12,2.22-10.39,.61-15.65-1.45-4.75-4.43-8.09-9.39-9.39-2.43-.64-4.93-.37-7.39-.34Z"/><path class="c" d="M449.07,51.23c-7.77,0-15.55,.01-23.32-.02-.95,0-1.2,.18-.91,1.15,1.21,4,3.37,7.22,7.28,9.04,1.97,.92,4.09,1.16,6.23,1.2,2.13,.04,4.27,.04,6.4,0,4.69-.08,8.63-1.66,11.3-5.73,.34-.52,.78-.76,1.42-.76,4.61,.02,9.22,.02,13.83,0,.68,0,1.1,.1,.92,.97-1.68,8.05-5.89,14.18-13.48,17.72-4.01,1.87-8.24,2.85-12.66,3.17-3.74,.27-7.46,.31-11.18-.19-7.4-.99-13.99-3.63-18.86-9.57-3.01-3.67-4.71-7.97-5.66-12.57-1-4.84-1.13-9.76-.73-14.67,.58-6.95,2.66-13.35,7.59-18.53,3.05-3.21,6.77-5.4,11.01-6.66,8.03-2.39,16.14-2.44,24.27-.63,4.29,.95,8.18,2.82,11.55,5.71,3.82,3.27,6.24,7.42,7.73,12.16,1.79,5.68,1.79,11.55,1.77,17.41,0,.93-.61,.79-1.16,.79-4.92,0-9.83,0-14.75,0-2.86,0-5.72,0-8.57,0Zm-7.66-13.33c5.07,0,10.13-.01,15.2,.01,.82,0,1.11-.08,.68-.99-2.32-4.91-6.08-7.69-11.58-7.85-2.85-.08-5.72-.1-8.57,0-5.39,.21-9.11,2.94-11.4,7.77-.42,.89-.25,1.08,.7,1.07,4.99-.03,9.98-.02,14.97-.02Z"/><path class="b" d="M39.74,.03c4,0,8,.03,12-.02,.93-.01,1.32,.33,1.61,1.19,4.73,13.87,9.49,27.74,14.26,41.6,3.81,11.09,7.65,22.17,11.47,33.26,.5,1.45,.49,1.45-.99,1.45-4.69,0-9.37-.02-14.06,.02-.9,0-1.34-.26-1.64-1.15-3.7-10.89-7.44-21.76-11.17-32.64-3.14-9.15-6.31-18.28-9.41-27.44-.4-1.19-1.15-1.19-2.1-1.18-.94,0-1.71-.04-2.12,1.16-3.71,10.97-7.48,21.91-11.24,32.86-3.13,9.11-6.28,18.21-9.39,27.33-.27,.78-.65,1.07-1.47,1.06-4.76-.03-9.53-.01-14.29-.02-1.38,0-1.39-.01-.94-1.32,4.51-13.15,9.02-26.29,13.54-39.44C17.89,24.87,21.99,13,26.06,1.11,26.34,.28,26.76,0,27.62,0c4.04,.04,8.08,.02,12.12,.02Z"/><path class="b" d="M211.35,13.94c6.99-.03,12.78,.92,18.15,3.65,6.94,3.53,11.3,9.25,13.38,16.68,1.55,5.55,2.01,11.18,1.25,16.94-.58,4.43-1.67,8.65-3.82,12.57-2.95,5.38-7.3,9.15-12.93,11.56-5.89,2.52-12.06,3.27-18.34,2.78-5.49-.43-10.82-1.68-15.6-4.68-5.91-3.7-9.65-9.01-11.52-15.63-2.23-7.89-2.42-15.85-.05-23.75,2.86-9.52,9.14-15.68,18.66-18.53,3.86-1.16,7.79-1.76,10.82-1.6Zm1.45,15.12c-1.89,0-3.39-.09-4.86,.02-4.07,.29-7.47,1.88-9.91,5.29-1.66,2.32-2.59,4.91-2.93,7.71-.63,5.14-.21,10.11,2.63,14.64,2.1,3.35,5.19,5.24,9.06,5.68,3.29,.37,6.6,.29,9.92,.09,5.51-.33,9.33-3,11.49-7.99,2.28-5.26,2.26-10.71,.52-16.07-1.65-5.1-5.18-8.33-10.61-9.22-1.89-.31-3.8-.05-5.29-.14Z"/><path class="b" d="M145.25,46c0,9.98,0,19.96,0,29.93,0,1.57,0,1.58-1.59,1.58-4.23,0-8.46,0-12.69,0-1.42,0-1.49-.08-1.5-1.49,0-.72,0-1.45-.01-2.17-.02-.57-.27-.68-.71-.3-4,3.37-8.73,4.39-13.82,4.45-4.67,.06-9.27-.19-13.78-1.55-7.69-2.33-12.68-7.28-14.91-14.99-.98-3.38-1.31-6.84-1.42-10.36-.35-11.61-.05-23.22-.16-34.84-.02-1.75,.07-1.81,1.79-1.81,4.19,0,8.38,.03,12.57-.02,1.1-.01,1.44,.34,1.43,1.44-.03,9.83-.03,19.65-.01,29.48,0,3.08,.22,6.16,.89,9.18,.48,2.14,1.3,4.13,2.91,5.71,1.46,1.44,3.24,2.04,5.24,2.22,3.04,.27,6.09,.18,9.13,.17,1.1,0,2.21-.11,3.3-.27,4.3-.6,6.12-3.01,7.05-7.27,.42-1.94,.51-3.91,.51-5.9-.03-11.01-.01-22.01-.01-33.02,0-1.7,.02-1.73,1.73-1.73,4.19,0,8.38,0,12.57,0,1.39,0,1.48,.1,1.48,1.51,0,10.02,0,20.03,0,30.05Z"/><path class="b" d="M150.73,30.56c0-9.67,0-19.35,0-29.02,0-1.51,0-1.51,1.53-1.51,4.27,0,8.54,.04,12.8-.03,1.19-.02,1.48,.39,1.47,1.51-.06,3.81-.03,7.62-.02,11.43,0,1.5,0,1.5,1.55,1.5,2.67,0,5.34,.03,8-.01,1.01-.02,1.44,.28,1.43,1.36-.04,4.42-.03,8.84,0,13.25,0,.9-.33,1.2-1.21,1.19-2.82-.04-5.64,.02-8.46-.03-.99-.02-1.33,.29-1.32,1.3,.03,9.25,.01,18.51,.02,27.76,0,1.92,.54,2.45,2.45,2.47,2.44,.03,4.88,.04,7.32,0,.89-.02,1.21,.29,1.2,1.19-.03,4.46-.02,8.91-.01,13.37,0,.67-.09,1.24-.96,1.22-3.91-.1-7.82,.25-11.72-.6-7.42-1.62-12.98-7.64-13.84-15.17-.17-1.48-.22-2.96-.22-4.44,0-8.91,0-17.82,0-26.74Z"/><path class="c" d="M249.81,30.41c0-9.75,.01-19.5-.02-29.25,0-.87,.19-1.16,1.12-1.15,4.53,.05,9.07,.05,13.61,0,.87,0,1.07,.23,1.06,1.07-.05,4.11,0,8.23-.04,12.34,0,.87,.18,1.18,1.11,1.16,2.9-.06,5.79,0,8.69-.04,.84-.01,1.19,.15,1.18,1.11-.06,4.53-.04,9.07,0,13.6,0,.82-.25,1.02-1.03,1-3.01-.04-6.02,0-9.03-.03-.7,0-.91,.18-.91,.89,.02,9.41,0,18.82,.02,28.23,0,1.96,.46,2.39,2.44,2.41,2.52,.02,5.03,.03,7.55-.01,.75-.01,.96,.21,.96,.96-.03,4.61-.01,9.22-.02,13.83,0,.43,.15,.98-.6,.97-3.88-.08-7.78,.32-11.62-.51-8.18-1.76-13.4-7.65-14.28-16.06-.12-1.13-.18-2.28-.18-3.42-.01-9.03,0-18.06,0-27.08Z"/><path class="c" d="M297.44,19.28c2.6-2.49,5.42-3.86,8.58-4.57,2.16-.49,4.36-.65,6.57-.75,.74-.03,.88,.24,.88,.91-.03,4.57-.02,9.14,0,13.71,0,.69-.2,.93-.91,.91-1.68-.05-3.36,.04-5.03-.02-6.4-.26-8.94,3.09-9.75,8.76-.28,2-.31,4.02-.32,6.03-.03,10.63-.03,21.25,.01,31.88,0,1.11-.3,1.39-1.39,1.37-4.42-.07-8.84-.05-13.26,0-.85,0-1.08-.21-1.08-1.07,.03-20.26,.02-40.53,0-60.79,0-.82,.17-1.11,1.05-1.1,4.53,.05,9.07,.05,13.61,0,.88,0,1.12,.26,1.07,1.1-.07,1.1-.02,2.2-.02,3.65Z"/><path class="c" d="M318.84,45.93c0-10.05,.02-20.1-.03-30.15,0-1.01,.25-1.26,1.25-1.25,4.49,.06,8.99,.04,13.49,0,.8,0,1.1,.14,1.1,1.05-.05,10.93-.04,21.85-.07,32.78-.02,9.25-.07,18.5-.06,27.75,0,1.08-.24,1.41-1.37,1.39-4.38-.07-8.76-.06-13.14,0-.95,.01-1.2-.24-1.2-1.19,.04-10.13,.02-20.26,.02-30.38Z"/><path class="c" d="M326.67,9.66c-2.32,0-4.64-.03-6.97,.02-.72,.01-.89-.21-.88-.9,.04-2.62,.04-5.25,0-7.88-.01-.7,.18-.9,.89-.89,4.68,.03,9.36,.03,14.05,0,.72,0,.89,.2,.88,.9-.04,2.62-.04,5.25,0,7.88,.01,.7-.17,.91-.89,.9-2.36-.04-4.72-.02-7.08-.02Z"/></svg>